<svg width="35" height="36" viewBox="0 0 35 36" fill="none" xmlns="http://www.w3.org/2000/svg">
<path fill-rule="evenodd" clip-rule="evenodd" d="M2.21621 0.588379C1.32902 0.588379 0.609818 1.309 0.609818 2.19793V33.8524C0.609818 34.7414 1.32902 35.462 2.21621 35.462H27.383C28.2701 35.462 28.9893 34.7414 28.9893 33.8524V2.19793C28.9893 1.309 28.2701 0.588379 27.383 0.588379H2.21621ZM7.03537 7.02658H11.8545V29.0238C9.19298 29.0238 7.03537 26.8473 7.03537 24.1625V7.02658ZM17.7446 7.02658H22.5638V22.5856H17.7446V7.02658Z" fill="#6933FF"/>
<path d="M32.1508 1.3396V1.72911H31.5941V3.40519H31.1877V1.72911H30.6341V1.3396H32.1508Z" fill="#6933FF"/>
<path d="M34.395 1.3396V3.40519H33.9915V2.06551L33.4114 3.02453H33.3642L32.7841 2.06846V3.40519H32.3776V1.3396H32.7958L33.3878 2.31633L33.9768 1.3396H34.395Z" fill="#6933FF"/>
</svg>
